<svg width="202" height="38" viewBox="0 0 202 38" fill="none" xmlns="http://www.w3.org/2000/svg">
<path d="M11.1198 29.48C9.81314 29.48 8.6798 29.2 7.7198 28.64C6.7598 28.0533 5.97314 27.28 5.3598 26.32C4.74647 25.3333 4.29314 24.24 3.99981 23.04C3.70647 21.8133 3.57314 20.5467 3.5998 19.24C3.62647 17.96 3.78647 16.72 4.0798 15.52C4.3998 14.32 4.86647 13.2533 5.47981 12.32C6.09314 11.3867 6.86647 10.6533 7.79981 10.12C8.73314 9.56 9.83981 9.28 11.1198 9.28C12.2931 9.28 13.4265 9.56 14.5198 10.12C15.6398 10.68 16.6398 11.44 17.5198 12.4C18.3998 13.3333 19.0931 14.4 19.5998 15.6C20.1065 16.8 20.3598 18.04 20.3598 19.32C20.3598 20.6533 20.1065 21.9333 19.5998 23.16C19.0931 24.3867 18.3998 25.48 17.5198 26.44C16.6665 27.3733 15.6798 28.12 14.5598 28.68C13.4665 29.2133 12.3198 29.48 11.1198 29.48ZM10.1598 22.28C10.6931 22.28 11.1731 22.1467 11.5998 21.88C12.0531 21.6133 12.4131 21.2667 12.6798 20.84C12.9465 20.3867 13.0798 19.9067 13.0798 19.4C13.0798 18.8667 12.9465 18.3867 12.6798 17.96C12.4398 17.5067 12.0931 17.16 11.6398 16.92C11.2131 16.6533 10.7331 16.52 10.1998 16.52C9.66647 16.52 9.17314 16.6533 8.71981 16.92C8.29314 17.1867 7.94647 17.5333 7.67981 17.96C7.43981 18.3867 7.31981 18.8667 7.31981 19.4C7.31981 19.9067 7.45314 20.3867 7.7198 20.84C7.98647 21.2667 8.33314 21.6133 8.75981 21.88C9.18647 22.1467 9.65314 22.28 10.1598 22.28ZM3.5998 29.52C2.3998 29.52 1.54647 29.3467 1.0398 29C0.533138 28.6267 0.226471 28.16 0.119805 27.6C0.0398047 27.04 -0.000195265 26.4667 -0.000195265 25.88V3.68C-0.000195265 3.06667 0.0531381 2.49333 0.159805 1.96C0.266471 1.4 0.573138 0.946666 1.0798 0.599999C1.58647 0.253332 2.4398 0.079999 3.6398 0.079999C4.83981 0.079999 5.67981 0.266666 6.15981 0.639999C6.63981 0.986666 6.91981 1.44 6.99981 2C7.0798 2.56 7.10647 3.13333 7.07981 3.72V27.52C6.89314 28.2133 6.53314 28.72 5.9998 29.04C5.49314 29.36 4.69314 29.52 3.5998 29.52ZM34.4282 29.48C33.1482 29.48 31.9482 29.2267 30.8282 28.72C29.7349 28.2133 28.7749 27.5067 27.9482 26.6C27.1216 25.6667 26.4816 24.5867 26.0282 23.36C25.5749 22.1333 25.3482 20.8 25.3482 19.36V12.84C25.3482 12.2267 25.4016 11.6533 25.5082 11.12C25.6149 10.56 25.9216 10.1067 26.4282 9.76C26.9349 9.38667 27.7882 9.2 28.9882 9.2C30.2149 9.2 31.0682 9.38667 31.5482 9.76C32.0549 10.1067 32.3616 10.56 32.4682 11.12C32.5749 11.68 32.6282 12.2667 32.6282 12.88V19.36C32.6282 19.9733 32.7349 20.4933 32.9482 20.92C33.1882 21.3467 33.5216 21.68 33.9482 21.92C34.4016 22.1333 34.9216 22.24 35.5082 22.24C36.0949 22.24 36.6016 22.12 37.0282 21.88C37.4549 21.64 37.7882 21.3067 38.0282 20.88C38.2682 20.4533 38.3882 19.9467 38.3882 19.36V12.8C38.3882 12.1867 38.4416 11.6133 38.5482 11.08C38.6549 10.52 38.9616 10.0667 39.4682 9.72C39.9749 9.37333 40.8282 9.2 42.0282 9.2C43.2549 9.2 44.1082 9.38667 44.5882 9.76C45.0949 10.1067 45.4016 10.56 45.5082 11.12C45.6149 11.68 45.6682 12.2533 45.6682 12.84V26C45.6682 26.5867 45.6149 27.1467 45.5082 27.68C45.4016 28.2133 45.0949 28.6533 44.5882 29C44.0816 29.3467 43.2282 29.52 42.0282 29.52C41.1482 29.52 40.4549 29.4133 39.9482 29.2C39.4682 29.0133 39.1216 28.7733 38.9082 28.48C38.6949 28.16 38.5616 27.8533 38.5082 27.56C38.4816 27.24 38.4682 26.9733 38.4682 26.76L39.1482 26.96C39.1482 26.96 39.0416 27.0933 38.8282 27.36C38.6149 27.6 38.2949 27.8933 37.8682 28.24C37.4682 28.56 36.9749 28.8533 36.3882 29.12C35.8282 29.36 35.1749 29.48 34.4282 29.48ZM54.2426 29.56C53.256 29.56 52.4026 29.2 51.6826 28.48C50.9893 27.76 50.6426 26.9067 50.6426 25.92C50.6426 25.44 50.7226 24.9867 50.8826 24.56C51.0693 24.1067 51.3493 23.7067 51.7226 23.36L59.4026 16.48H55.1226C54.536 16.48 53.9626 16.4267 53.4026 16.32C52.8426 16.2133 52.376 15.9067 52.0026 15.4C51.6293 14.8933 51.4426 14.04 51.4426 12.84C51.4426 11.64 51.6293 10.8 52.0026 10.32C52.376 9.81333 52.8426 9.50667 53.4026 9.4C53.9626 9.29333 54.536 9.24 55.1226 9.24H67.2426C68.2293 9.24 69.0693 9.58667 69.7626 10.28C70.4826 10.9733 70.8426 11.8133 70.8426 12.8C70.8426 13.3067 70.7493 13.8 70.5626 14.28C70.376 14.7333 70.1226 15.1067 69.8026 15.4L62.3226 22.28H67.7226C68.336 22.28 68.9093 22.3333 69.4426 22.44C70.0026 22.5467 70.456 22.8667 70.8026 23.4C71.1493 23.9067 71.3226 24.76 71.3226 25.96C71.3226 27.16 71.136 28.0133 70.7626 28.52C70.416 29.0267 69.9626 29.32 69.4026 29.4C68.8693 29.5067 68.296 29.56 67.6826 29.56H54.2426ZM79.2395 29.56C78.2528 29.56 77.3995 29.2 76.6795 28.48C75.9862 27.76 75.6395 26.9067 75.6395 25.92C75.6395 25.44 75.7195 24.9867 75.8795 24.56C76.0662 24.1067 76.3462 23.7067 76.7195 23.36L84.3995 16.48H80.1195C79.5328 16.48 78.9595 16.4267 78.3995 16.32C77.8395 16.2133 77.3728 15.9067 76.9995 15.4C76.6262 14.8933 76.4395 14.04 76.4395 12.84C76.4395 11.64 76.6262 10.8 76.9995 10.32C77.3728 9.81333 77.8395 9.50667 78.3995 9.4C78.9595 9.29333 79.5328 9.24 80.1195 9.24H92.2395C93.2262 9.24 94.0662 9.58667 94.7595 10.28C95.4795 10.9733 95.8395 11.8133 95.8395 12.8C95.8395 13.3067 95.7462 13.8 95.5595 14.28C95.3728 14.7333 95.1195 15.1067 94.7995 15.4L87.3195 22.28H92.7195C93.3328 22.28 93.9062 22.3333 94.4395 22.44C94.9995 22.5467 95.4528 22.8667 95.7995 23.4C96.1462 23.9067 96.3195 24.76 96.3195 25.96C96.3195 27.16 96.1328 28.0133 95.7595 28.52C95.4128 29.0267 94.9595 29.32 94.3995 29.4C93.8662 29.5067 93.2928 29.56 92.6795 29.56H79.2395ZM109.756 29.56C108.53 29.56 107.45 29.5067 106.516 29.4C105.61 29.2933 104.836 29.08 104.196 28.76C103.556 28.44 103.036 27.9867 102.636 27.4C102.236 26.7867 101.943 26 101.756 25.04C101.57 24.0533 101.476 22.8267 101.476 21.36V3.64C101.476 3.02667 101.53 2.45333 101.636 1.92C101.743 1.36 102.05 0.906667 102.556 0.56C103.063 0.186667 103.916 0 105.116 0C106.316 0 107.156 0.186667 107.636 0.56C108.143 0.906667 108.45 1.36 108.556 1.92C108.663 2.48 108.716 3.06667 108.716 3.68V20.92C108.716 21.32 108.716 21.64 108.716 21.88C108.743 22.0933 108.783 22.2533 108.836 22.36C108.916 22.4667 109.023 22.5333 109.156 22.56C109.316 22.56 109.53 22.56 109.796 22.56C110.143 22.56 110.503 22.6133 110.876 22.72C111.276 22.8 111.61 23.08 111.876 23.56C112.17 24.0133 112.316 24.8133 112.316 25.96C112.316 27.16 112.17 28.0133 111.876 28.52C111.61 29.0267 111.276 29.32 110.876 29.4C110.476 29.5067 110.103 29.56 109.756 29.56ZM120.698 29.56C119.498 29.56 118.645 29.3867 118.138 29.04C117.632 28.6667 117.325 28.2 117.218 27.64C117.138 27.08 117.098 26.5067 117.098 25.92V12.88C117.098 12.2933 117.152 11.7333 117.258 11.2C117.365 10.64 117.672 10.1867 118.178 9.84C118.685 9.46667 119.538 9.28 120.738 9.28C121.938 9.28 122.778 9.46667 123.258 9.84C123.765 10.1867 124.072 10.64 124.178 11.2C124.285 11.76 124.338 12.3467 124.338 12.96V25.96C124.338 26.5467 124.285 27.12 124.178 27.68C124.072 28.24 123.765 28.6933 123.258 29.04C122.778 29.3867 121.925 29.56 120.698 29.56ZM120.698 7.32C119.498 7.32 118.645 7.14667 118.138 6.8C117.632 6.42667 117.325 5.96 117.218 5.4C117.138 4.84 117.098 4.26667 117.098 3.68C117.098 3.06667 117.152 2.49333 117.258 1.96C117.365 1.4 117.672 0.946666 118.178 0.599999C118.685 0.253332 119.538 0.079999 120.738 0.079999C121.938 0.079999 122.778 0.266666 123.258 0.639999C123.765 0.986666 124.072 1.44 124.178 2C124.285 2.56 124.338 3.13333 124.338 3.72C124.338 4.30667 124.285 4.88 124.178 5.44C124.072 6 123.765 6.45333 123.258 6.8C122.778 7.14667 121.925 7.32 120.698 7.32ZM133.737 29.52C132.537 29.52 131.684 29.3467 131.177 29C130.671 28.6267 130.364 28.16 130.257 27.6C130.177 27.04 130.137 26.4667 130.137 25.88V12.72C130.137 12.1333 130.191 11.5733 130.297 11.04C130.404 10.5067 130.711 10.08 131.217 9.76C131.724 9.41333 132.577 9.24 133.777 9.24C134.871 9.24 135.657 9.38667 136.137 9.68C136.644 9.94667 136.964 10.28 137.097 10.68C137.231 11.08 137.284 11.4533 137.257 11.8C137.257 12.12 137.284 12.32 137.337 12.4L137.017 12.64C136.991 12.24 137.137 11.84 137.457 11.44C137.804 11.04 138.244 10.68 138.777 10.36C139.337 10.0133 139.924 9.74667 140.537 9.56C141.177 9.34667 141.777 9.24 142.337 9.24C143.671 9.24 144.844 9.49333 145.857 10C146.871 10.5067 147.711 11.2267 148.377 12.16C149.071 13.0667 149.591 14.1333 149.937 15.36C150.284 16.5867 150.457 17.92 150.457 19.36V25.92C150.457 26.5067 150.404 27.08 150.297 27.64C150.191 28.2 149.884 28.6533 149.377 29C148.897 29.3467 148.044 29.52 146.817 29.52C145.591 29.52 144.724 29.3467 144.217 29C143.711 28.6267 143.404 28.16 143.297 27.6C143.191 27.04 143.137 26.4667 143.137 25.88V19.36C143.137 18.7467 143.017 18.2267 142.777 17.8C142.564 17.3733 142.244 17.0533 141.817 16.84C141.417 16.6 140.911 16.48 140.297 16.48C139.711 16.48 139.191 16.6 138.737 16.84C138.311 17.08 137.977 17.4133 137.737 17.84C137.497 18.2667 137.377 18.7733 137.377 19.36V25.92C137.377 26.5067 137.324 27.08 137.217 27.64C137.111 28.2 136.804 28.6533 136.297 29C135.817 29.3467 134.964 29.52 133.737 29.52ZM165.394 38C164.46 38 163.5 37.8667 162.514 37.6C161.554 37.36 160.66 37.0267 159.834 36.6C159.007 36.1733 158.34 35.7067 157.834 35.2C157.327 34.72 157.074 34.24 157.074 33.76C157.074 33.2267 157.167 32.7333 157.354 32.28C157.567 31.8267 157.874 31.3867 158.274 30.96C158.7 30.5067 159.074 30.1467 159.394 29.88C159.714 29.6133 160.1 29.48 160.554 29.48C160.954 29.48 161.3 29.5733 161.594 29.76C161.914 29.9467 162.234 30.1467 162.554 30.36C162.874 30.6 163.26 30.8133 163.714 31C164.194 31.1867 164.794 31.28 165.514 31.28C165.914 31.28 166.287 31.1867 166.634 31C166.98 30.84 167.274 30.6 167.514 30.28C167.78 29.9867 167.994 29.6267 168.154 29.2C168.314 28.8 168.394 28.36 168.394 27.88V11.4C168.5 10.6 168.834 10.0267 169.394 9.68C169.954 9.33333 170.807 9.16 171.954 9.16C173.127 9.16 173.954 9.33333 174.434 9.68C174.914 10.0267 175.194 10.48 175.274 11.04C175.38 11.5733 175.434 12.1333 175.434 12.72V28.12C175.434 29.6933 175.127 31.0933 174.514 32.32C173.927 33.5467 173.14 34.5733 172.154 35.4C171.167 36.2533 170.087 36.8933 168.914 37.32C167.74 37.7733 166.567 38 165.394 38ZM164.394 28.96C163.22 28.96 162.087 28.6933 160.994 28.16C159.927 27.6267 158.967 26.8933 158.114 25.96C157.26 25.0267 156.58 23.9733 156.074 22.8C155.594 21.6 155.354 20.3467 155.354 19.04C155.354 17.7867 155.594 16.5733 156.074 15.4C156.58 14.2267 157.26 13.1867 158.114 12.28C158.994 11.3467 159.967 10.6133 161.034 10.08C162.127 9.52 163.247 9.24 164.394 9.24C165.567 9.24 166.527 9.48 167.274 9.96C168.047 10.44 168.647 11.12 169.074 12C169.527 12.88 169.847 13.9333 170.034 15.16C170.22 16.36 170.314 17.6933 170.314 19.16C170.314 21.1867 170.14 22.9333 169.794 24.4C169.474 25.8667 168.887 27 168.034 27.8C167.18 28.5733 165.967 28.96 164.394 28.96ZM165.354 21.92C165.86 21.92 166.314 21.7867 166.714 21.52C167.14 21.2533 167.474 20.9067 167.714 20.48C167.98 20.0533 168.114 19.6 168.114 19.12C168.114 18.5867 167.98 18.1067 167.714 17.68C167.474 17.2533 167.14 16.92 166.714 16.68C166.287 16.4133 165.807 16.28 165.274 16.28C164.767 16.28 164.3 16.4133 163.874 16.68C163.447 16.9467 163.1 17.2933 162.834 17.72C162.594 18.1467 162.474 18.6133 162.474 19.12C162.474 19.6 162.607 20.0533 162.874 20.48C163.14 20.9067 163.487 21.2533 163.914 21.52C164.367 21.7867 164.847 21.92 165.354 21.92ZM191.029 29.92C189.803 29.92 188.563 29.68 187.309 29.2C186.056 28.6933 184.896 27.9867 183.829 27.08C182.789 26.1467 181.949 25.04 181.309 23.76C180.696 22.4533 180.389 21 180.389 19.4C180.389 17.9333 180.669 16.56 181.229 15.28C181.789 14 182.549 12.88 183.509 11.92C184.496 10.9333 185.616 10.16 186.869 9.6C188.149 9.04 189.509 8.76 190.949 8.76C192.923 8.76 194.709 9.24 196.309 10.2C197.909 11.1333 199.189 12.4 200.149 14C201.109 15.6 201.589 17.3867 201.589 19.36C201.589 21.04 201.269 22.5333 200.629 23.84C199.989 25.1467 199.149 26.2533 198.109 27.16C197.069 28.0667 195.923 28.7467 194.669 29.2C193.443 29.68 192.229 29.92 191.029 29.92ZM190.949 22.6C191.349 22.6 191.803 22.5067 192.309 22.32C192.843 22.1067 193.296 21.76 193.669 21.28C194.069 20.8 194.269 20.1467 194.269 19.32C194.269 18.6533 194.123 18.08 193.829 17.6C193.563 17.12 193.176 16.7467 192.669 16.48C192.163 16.2133 191.576 16.08 190.909 16.08C190.323 16.08 189.789 16.2267 189.309 16.52C188.829 16.7867 188.443 17.1733 188.149 17.68C187.856 18.16 187.709 18.72 187.709 19.36C187.709 20.16 187.896 20.8 188.269 21.28C188.643 21.76 189.083 22.1067 189.589 22.32C190.096 22.5067 190.549 22.6 190.949 22.6Z" fill="#E4B808"/>
</svg>
